<svg width="29" height="30" viewBox="0 0 29 30" fill="none" xmlns="http://www.w3.org/2000/svg">
<path d="M12.6875 25.875C13.6885 25.875 14.5 25.0635 14.5 24.0625C14.5 23.0615 13.6885 22.25 12.6875 22.25C11.6865 22.25 10.875 23.0615 10.875 24.0625C10.875 25.0635 11.6865 25.875 12.6875 25.875Z" fill="#004921"/>
<path d="M21.1458 25.875C22.1468 25.875 22.9583 25.0635 22.9583 24.0625C22.9583 23.0615 22.1468 22.25 21.1458 22.25C20.1448 22.25 19.3333 23.0615 19.3333 24.0625C19.3333 25.0635 20.1448 25.875 21.1458 25.875Z" fill="#004921"/>
<path d="M16.9166 17.4046L21.75 11.3629H18.125V6.52959H15.7083V11.3629H12.0833L16.9166 17.4046Z" fill="#004921"/>
<path d="M20.9163 18.625H12.8929L7.46752 5.61126C7.28357 5.17029 6.97303 4.79374 6.57515 4.52921C6.17727 4.26467 5.7099 4.12401 5.2321 4.12501H2.41669V6.54167H5.2321L10.9717 20.2925C11.0623 20.5132 11.2163 20.7021 11.4141 20.8354C11.6119 20.9687 11.8448 21.0405 12.0834 21.0417H21.75C21.9934 21.041 22.2309 20.9667 22.4315 20.8287C22.632 20.6908 22.7861 20.4954 22.8738 20.2683L26.2934 11.375H23.7075L20.9163 18.625Z" fill="#004921"/>
</svg>
