<svg width="80" height="80" viewBox="0 0 80 80" fill="none" xmlns="http://www.w3.org/2000/svg">
<path d="M69.9995 30.0001H65.2662L52.8928 8.34674L47.1062 11.6534L57.5895 30.0001H22.4095L32.8962 11.6534L27.1062 8.34674L14.7328 30.0001H9.99949C9.48715 30.0006 8.98181 30.1192 8.52267 30.3465C8.06352 30.5738 7.66289 30.9039 7.35183 31.311C7.04077 31.7181 6.82765 32.1914 6.72897 32.6941C6.6303 33.1969 6.64872 33.7156 6.78282 34.2101L16.1128 68.4234C16.5007 69.8327 17.3399 71.076 18.5018 71.9629C19.6638 72.8497 21.0844 73.3311 22.5462 73.3334H57.4562C60.4495 73.3334 63.0962 71.3167 63.8895 68.4167L73.2195 34.2067C73.3552 33.7121 73.3747 33.1927 73.2764 32.6893C73.1781 32.1859 72.9647 31.712 72.6529 31.3047C72.3412 30.8974 71.9394 30.5677 71.4791 30.3414C71.0188 30.1151 70.5124 29.9982 69.9995 30.0001ZM57.4528 66.6667H22.5462L14.3662 36.6667H65.6328L57.4528 66.6667Z" fill="#004921"/>
<path d="M30 43.3333H36.6667V60H30V43.3333ZM43.3333 43.3333H50V60H43.3333V43.3333Z" fill="#004921"/>
</svg>
