<svg width="28" height="28" viewBox="0 0 28 28" fill="none" xmlns="http://www.w3.org/2000/svg">
<path d="M22.1667 15.8503V11.6667C22.1667 7.91351 19.6175 4.75184 16.1642 3.80101C15.8223 2.94001 14.987 2.33334 14 2.33334C13.013 2.33334 12.1777 2.94001 11.8358 3.80101C8.3825 4.75301 5.83333 7.91351 5.83333 11.6667V15.8503L3.84183 17.8418C3.73328 17.95 3.6472 18.0786 3.58853 18.2201C3.52987 18.3617 3.49978 18.5134 3.5 18.6667V21C3.5 21.3094 3.62292 21.6062 3.84171 21.825C4.0605 22.0438 4.35725 22.1667 4.66667 22.1667H23.3333C23.6428 22.1667 23.9395 22.0438 24.1583 21.825C24.3771 21.6062 24.5 21.3094 24.5 21V18.6667C24.5002 18.5134 24.4701 18.3617 24.4115 18.2201C24.3528 18.0786 24.2667 17.95 24.1582 17.8418L22.1667 15.8503ZM22.1667 19.8333H5.83333V19.1497L7.82483 17.1582C7.93338 17.05 8.01947 16.9215 8.07814 16.7799C8.1368 16.6383 8.16689 16.4866 8.16667 16.3333V11.6667C8.16667 8.45018 10.7835 5.83334 14 5.83334C17.2165 5.83334 19.8333 8.45018 19.8333 11.6667V16.3333C19.8333 16.6437 19.9558 16.94 20.1752 17.1582L22.1667 19.1497V19.8333ZM14 25.6667C14.7225 25.6676 15.4274 25.4434 16.0166 25.0252C16.6058 24.607 17.0501 24.0157 17.2877 23.3333H10.7123C10.9499 24.0157 11.3942 24.607 11.9834 25.0252C12.5726 25.4434 13.2775 25.6676 14 25.6667Z" fill="#004921"/>
</svg>
