<svg width="14" height="14" viewBox="0 0 14 14" fill="none" xmlns="http://www.w3.org/2000/svg">
<path d="M12.7293 4.33475C12.6757 4.25721 12.604 4.19383 12.5205 4.15005C12.437 4.10626 12.3441 4.08337 12.2498 4.08334H4.27742L3.60425 2.4675C3.51599 2.25472 3.36653 2.07293 3.17482 1.94519C2.98311 1.81746 2.75779 1.74952 2.52742 1.75H1.1665V2.91667H2.52742L5.29475 9.55792C5.33908 9.66418 5.41386 9.75494 5.50967 9.81878C5.60548 9.88262 5.71804 9.91668 5.83317 9.91667H10.4998C10.7431 9.91667 10.9607 9.76559 11.0464 9.53867L12.7964 4.872C12.8295 4.7837 12.8407 4.68869 12.829 4.59512C12.8173 4.50155 12.7831 4.41221 12.7293 4.33475ZM10.0956 8.75H6.22225L4.76392 5.25H11.4081L10.0956 8.75Z" fill="#004921"/>
<path d="M6.125 12.25C6.60825 12.25 7 11.8582 7 11.375C7 10.8918 6.60825 10.5 6.125 10.5C5.64175 10.5 5.25 10.8918 5.25 11.375C5.25 11.8582 5.64175 12.25 6.125 12.25Z" fill="#004921"/>
<path d="M10.2085 12.25C10.6917 12.25 11.0835 11.8582 11.0835 11.375C11.0835 10.8918 10.6917 10.5 10.2085 10.5C9.72525 10.5 9.3335 10.8918 9.3335 11.375C9.3335 11.8582 9.72525 12.25 10.2085 12.25Z" fill="#004921"/>
</svg>
