<svg width="14" height="14" viewBox="0 0 14 14" fill="none" xmlns="http://www.w3.org/2000/svg">
<path d="M9.68551 6.44469C10.0408 5.83924 10.1942 5.13645 10.1236 4.43802C10.0192 3.39736 9.43817 2.47744 8.48851 1.84802L7.84392 2.81986C8.49667 3.25269 8.89392 3.86927 8.96276 4.55469C8.9945 4.87325 8.95484 5.19487 8.84667 5.49618C8.7385 5.79748 8.56453 6.07089 8.33742 6.29652L7.64209 6.99186L8.58592 7.26894C11.0546 7.99227 11.0832 10.4749 11.0832 10.5H12.2498C12.2498 9.45644 11.6922 7.41711 9.68551 6.44469Z" fill="#004921"/>
<path d="M5.5415 6.99998C6.82834 6.99998 7.87484 5.95348 7.87484 4.66665C7.87484 3.37981 6.82834 2.33331 5.5415 2.33331C4.25467 2.33331 3.20817 3.37981 3.20817 4.66665C3.20817 5.95348 4.25467 6.99998 5.5415 6.99998ZM5.5415 3.49998C6.18492 3.49998 6.70817 4.02323 6.70817 4.66665C6.70817 5.31006 6.18492 5.83331 5.5415 5.83331C4.89809 5.83331 4.37484 5.31006 4.37484 4.66665C4.37484 4.02323 4.89809 3.49998 5.5415 3.49998ZM6.4165 7.58331H4.6665C2.73625 7.58331 1.1665 9.15306 1.1665 11.0833V11.6666H2.33317V11.0833C2.33317 9.79648 3.37967 8.74998 4.6665 8.74998H6.4165C7.70334 8.74998 8.74984 9.79648 8.74984 11.0833V11.6666H9.9165V11.0833C9.9165 9.15306 8.34675 7.58331 6.4165 7.58331Z" fill="#004921"/>
</svg>
