<svg width="36" height="36" viewBox="0 0 36 36" fill="none" xmlns="http://www.w3.org/2000/svg">
<path d="M19.0649 3.43503C18.9255 3.29444 18.7596 3.18285 18.5768 3.10669C18.394 3.03054 18.1979 2.99133 17.9999 2.99133C17.8019 2.99133 17.6058 3.03054 17.423 3.10669C17.2403 3.18285 17.0744 3.29444 16.9349 3.43503L3.43491 16.935C3.29432 17.0745 3.18272 17.2404 3.10657 17.4232C3.03042 17.606 2.99121 17.802 2.99121 18C2.99121 18.198 3.03042 18.3941 3.10657 18.5769C3.18272 18.7597 3.29432 18.9256 3.43491 19.065C3.57507 19.2041 3.74129 19.314 3.92405 19.3887C4.1068 19.4633 4.3025 19.5012 4.49991 19.5H5.99991V30C5.99991 30.7957 6.31598 31.5587 6.87859 32.1214C7.4412 32.684 8.20426 33 8.99991 33H26.9999C27.7956 33 28.5586 32.684 29.1212 32.1214C29.6838 31.5587 29.9999 30.7957 29.9999 30V19.5H31.4999C31.8977 19.5 32.2793 19.342 32.5606 19.0607C32.8419 18.7794 32.9999 18.3979 32.9999 18C33.001 17.8026 32.9632 17.6069 32.8886 17.4242C32.8139 17.2414 32.7039 17.0752 32.5649 16.935L19.0649 3.43503ZM8.99991 30V15.615L17.9999 6.61503L26.9999 15.615V30H8.99991Z" fill="#437057"/>
</svg>
