<svg width="640" height="313" viewBox="0 0 640 313" fill="none" xmlns="http://www.w3.org/2000/svg">
<rect width="640" height="313" rx="7" fill="white"/>
<path d="M260.497 150C257.497 178 222.497 223.5 207.997 208C196.397 195.6 238.163 164.167 260.497 150Z" fill="#004921"/>
<path d="M307.031 68.9832C306.185 68.4952 305.679 67.8341 305.51 66.9999C305.374 66.1845 305.597 65.2729 306.179 64.2652C307.061 62.7373 308.085 61.6384 309.252 60.9685C310.438 60.266 311.861 59.6787 313.52 59.2066C314.737 58.8255 315.693 58.4457 316.389 58.067C317.117 57.7071 317.687 57.1695 318.1 56.4543C318.513 55.7391 318.581 55.0201 318.305 54.2972C318.029 53.5743 317.436 52.9501 316.526 52.4245C315.778 51.9929 314.946 51.7075 314.029 51.5684C313.164 51.4155 312.126 51.3364 310.915 51.331L309.407 51.2405C307.945 51.22 306.873 51.0127 306.19 50.6186C305.378 50.1493 304.876 49.4045 304.685 48.384C304.545 47.3497 304.766 46.3287 305.348 45.321C305.742 44.6383 306.184 44.1351 306.675 43.8113C307.198 43.5064 307.857 43.3021 308.654 43.1986C310.736 42.9704 312.873 43.0986 315.064 43.5833C317.306 44.0542 319.369 44.834 321.255 45.9226C323.368 47.1425 325.038 48.605 326.264 50.3099C327.509 51.9822 328.227 53.7407 328.419 55.5854C328.63 57.3975 328.266 59.1162 327.328 60.7417C326.633 61.9445 325.735 62.8996 324.633 63.6071C323.564 64.3333 322.465 64.8475 321.337 65.1498C320.209 65.4521 318.785 65.7786 317.065 66.1295C315.486 66.3879 314.216 66.6732 313.255 66.9855C312.346 67.2841 311.613 67.7278 311.056 68.3167C310.513 68.9568 309.869 69.3217 309.124 69.4115C308.411 69.5201 307.713 69.3773 307.031 68.9832ZM300.4 80.6937C299.067 79.9242 298.208 78.8215 297.823 77.3858C297.471 75.9688 297.68 74.5939 298.449 73.261C299.219 71.9282 300.305 71.06 301.708 70.6566C303.144 70.2719 304.528 70.4643 305.861 71.2338C307.227 72.0221 308.085 73.1247 308.438 74.5417C308.822 75.9774 308.63 77.3617 307.86 78.6946C307.091 80.0274 305.988 80.8862 304.552 81.2709C303.149 81.6744 301.765 81.482 300.4 80.6937Z" fill="#004921"/>
<path d="M90.9416 112.203C89.5276 112.582 88.2887 112.418 87.2252 111.712C86.216 110.992 85.4856 109.788 85.0338 108.102C84.3489 105.546 84.27 103.294 84.7972 101.346C85.3098 99.3428 86.1959 97.2109 87.4554 94.9497C88.342 93.2549 88.9532 91.8378 89.2892 90.6985C89.6795 89.5447 89.7144 88.3695 89.3938 87.173C89.0732 85.9764 88.383 85.1413 87.3234 84.6674C86.2637 84.1935 84.9725 84.1606 83.4496 84.5686C82.1987 84.9038 81.0134 85.4838 79.8937 86.3084C78.8137 87.0641 77.6289 88.0811 76.3392 89.3593L74.6436 90.863C73.0713 92.3918 71.7141 93.3092 70.572 93.6153C69.2123 93.9796 67.8899 93.7219 66.6049 92.842C65.3597 91.8933 64.5112 90.5759 64.0595 88.8898C63.7534 87.7477 63.6888 86.7449 63.8655 85.8815C64.0965 85.0035 64.5796 84.0871 65.3148 83.1323C67.2813 80.6817 69.6835 78.5516 72.5212 76.742C75.3988 74.8634 78.4148 73.5015 81.5693 72.6562C85.1045 71.709 88.4265 71.4892 91.5355 71.9969C94.6299 72.4502 97.2571 73.5533 99.4173 75.3061C101.563 77.0046 103 79.2136 103.729 81.9329C104.268 83.9453 104.328 85.911 103.91 87.8302C103.546 89.7348 102.926 91.4457 102.05 92.9628C101.174 94.4799 100.01 96.3365 98.5583 98.5326C97.157 100.482 96.1126 102.132 95.425 103.482C94.7773 104.763 94.4705 106.011 94.5046 107.226C94.6077 108.481 94.3116 109.551 93.6162 110.437C92.9753 111.308 92.0838 111.897 90.9416 112.203ZM96.3292 131.657C94.0994 132.254 92.019 131.996 90.0881 130.881C88.2116 129.752 86.9746 128.072 86.3771 125.842C85.7796 123.612 86.011 121.539 87.0714 119.623C88.1863 117.692 89.8586 116.428 92.0885 115.83C94.3728 115.218 96.4531 115.477 98.3296 116.606C100.261 117.721 101.525 119.393 102.122 121.623C102.72 123.853 102.461 125.933 101.346 127.864C100.286 129.781 98.6135 131.045 96.3292 131.657Z" fill="#004921"/>
<rect x="16.2148" y="14.6973" width="610.607" height="282.422" rx="10.5765" stroke="#004921" stroke-width="7"/>
<path d="M100.579 223.946C57.9098 310.604 27.9973 128.929 17 95.9376L17 291.249L26.2377 300.487L617.011 300.487L626.249 291.249L626.249 223.946C589.298 242.861 425.694 269.263 396.626 255.618C268.617 195.529 139.29 277.788 100.579 260.633C61.8689 243.477 235.186 227.022 268.617 133.766C302.049 40.5088 224.628 -0.0456538 160.844 38.4873C100.22 75.1112 132.418 159.283 100.579 223.946Z" fill="#004921"/>
<ellipse cx="8.24793" cy="13.1966" rx="8.24793" ry="13.1966" transform="matrix(0.965926 0.258817 -0.258821 0.965925 241.057 90.416)" fill="white"/>
<ellipse cx="8.24793" cy="13.1966" rx="8.24793" ry="13.1966" transform="matrix(0.965926 0.258817 -0.258821 0.965925 183.18 72.8838)" fill="white"/>
<rect width="30.6975" height="11.9794" transform="matrix(0.994358 -0.106077 0.10608 0.994358 170.305 76.4443)" fill="#004921"/>
<rect width="30.6975" height="11.9794" transform="matrix(0.827584 0.561342 -0.56134 0.827586 240.725 81)" fill="#004921"/>
<path d="M170.305 76.4443L170.515 78.4126C171.101 83.9043 176.027 87.8812 181.519 87.2954L192.156 86.1606C197.648 85.5748 201.625 80.648 201.039 75.1563L200.829 73.188" stroke="white" stroke-width="2"/>
<path d="M240.725 81L239.613 82.6381C236.513 87.2088 237.705 93.4272 242.276 96.5274L251.129 102.532C255.7 105.633 261.918 104.441 265.018 99.8699L266.129 98.2318" stroke="white" stroke-width="2"/>
<path d="M378.88 124.04L376.417 124.639V104.263H385.214V130.656H373.848L360.756 110.316L363.22 109.717V130.656H354.422V104.263H366.141L378.88 124.04ZM401.204 131.29C398.53 131.29 396.184 130.844 394.166 129.952C392.172 129.061 390.612 127.806 389.486 126.187C388.383 124.568 387.832 122.691 387.832 120.556C387.832 118.398 388.383 116.509 389.486 114.891C390.612 113.272 392.172 112.017 394.166 111.125C396.184 110.234 398.53 109.788 401.204 109.788C403.879 109.788 406.213 110.234 408.207 111.125C410.225 112.017 411.785 113.272 412.888 114.891C414.014 116.509 414.577 118.398 414.577 120.556C414.577 122.691 414.014 124.568 412.888 126.187C411.785 127.806 410.225 129.061 408.207 129.952C406.213 130.844 403.879 131.29 401.204 131.29ZM401.204 124.779C402.143 124.779 402.929 124.615 403.562 124.287C404.219 123.958 404.712 123.477 405.04 122.844C405.392 122.21 405.568 121.448 405.568 120.556C405.568 119.641 405.392 118.867 405.04 118.234C404.712 117.6 404.219 117.119 403.562 116.791C402.929 116.462 402.143 116.298 401.204 116.298C400.289 116.298 399.503 116.462 398.847 116.791C398.19 117.119 397.685 117.6 397.333 118.234C397.005 118.867 396.841 119.641 396.841 120.556C396.841 121.448 397.005 122.21 397.333 122.844C397.685 123.477 398.19 123.958 398.847 124.287C399.503 124.615 400.289 124.779 401.204 124.779ZM438.011 131.29C435.336 131.29 432.99 130.844 430.973 129.952C428.978 129.061 427.418 127.806 426.292 126.187C425.19 124.568 424.638 122.691 424.638 120.556C424.638 118.398 425.19 116.509 426.292 114.891C427.418 113.272 428.978 112.017 430.973 111.125C432.99 110.234 435.336 109.788 438.011 109.788C440.685 109.788 443.02 110.234 445.014 111.125C447.032 112.017 448.592 113.272 449.694 114.891C450.821 116.509 451.384 118.398 451.384 120.556C451.384 122.691 450.821 124.568 449.694 126.187C448.592 127.806 447.032 129.061 445.014 129.952C443.02 130.844 440.685 131.29 438.011 131.29ZM438.011 124.779C438.949 124.779 439.735 124.615 440.369 124.287C441.026 123.958 441.518 123.477 441.847 122.844C442.199 122.21 442.375 121.448 442.375 120.556C442.375 119.641 442.199 118.867 441.847 118.234C441.518 117.6 441.026 117.119 440.369 116.791C439.735 116.462 438.949 116.298 438.011 116.298C437.096 116.298 436.31 116.462 435.653 116.791C434.996 117.119 434.492 117.6 434.14 118.234C433.811 118.867 433.647 119.641 433.647 120.556C433.647 121.448 433.811 122.21 434.14 122.844C434.492 123.477 434.996 123.958 435.653 124.287C436.31 124.615 437.096 124.779 438.011 124.779ZM452.781 110.421H461.931L463.127 117.565V130.656H454.189V117.46L452.781 110.421ZM472.066 109.999V117.565C471.268 117.424 470.553 117.331 469.919 117.284C469.286 117.213 468.723 117.178 468.23 117.178C467.338 117.178 466.506 117.342 465.731 117.671C464.957 117.976 464.324 118.539 463.831 119.36C463.362 120.181 463.127 121.354 463.127 122.879L461.544 120.908C461.778 119.454 462.072 118.07 462.423 116.756C462.799 115.418 463.291 114.234 463.901 113.201C464.511 112.146 465.286 111.313 466.224 110.703C467.163 110.093 468.336 109.788 469.743 109.788C470.095 109.788 470.459 109.811 470.834 109.858C471.21 109.882 471.62 109.929 472.066 109.999ZM491.991 130.656L490.97 123.125L492.343 120.627L490.97 117.248L492.8 103.559H502.091L499.839 119.817L501.281 130.656H491.991ZM493.68 120.556C493.446 122.715 492.859 124.603 491.921 126.222C491.006 127.817 489.797 129.061 488.296 129.952C486.818 130.844 485.117 131.29 483.193 131.29C481.222 131.29 479.486 130.844 477.985 129.952C476.507 129.061 475.346 127.806 474.501 126.187C473.68 124.568 473.269 122.691 473.269 120.556C473.269 118.398 473.68 116.509 474.501 114.891C475.346 113.272 476.507 112.017 477.985 111.125C479.486 110.234 481.222 109.788 483.193 109.788C485.117 109.788 486.818 110.234 488.296 111.125C489.797 111.993 491.017 113.237 491.956 114.855C492.894 116.451 493.469 118.351 493.68 120.556ZM482.278 120.556C482.278 121.331 482.431 122.023 482.736 122.633C483.064 123.219 483.51 123.688 484.073 124.04C484.659 124.392 485.328 124.568 486.079 124.568C486.853 124.568 487.604 124.392 488.331 124.04C489.058 123.688 489.692 123.219 490.231 122.633C490.794 122.023 491.182 121.331 491.393 120.556C491.182 119.782 490.794 119.09 490.231 118.48C489.692 117.87 489.058 117.389 488.331 117.037C487.604 116.685 486.853 116.509 486.079 116.509C485.328 116.509 484.659 116.685 484.073 117.037C483.51 117.389 483.064 117.87 482.736 118.48C482.431 119.09 482.278 119.782 482.278 120.556ZM516.19 131.29C513.679 131.29 511.427 130.844 509.433 129.952C507.462 129.037 505.902 127.771 504.752 126.152C503.603 124.51 503.028 122.609 503.028 120.451C503.028 118.316 503.579 116.451 504.682 114.855C505.808 113.26 507.333 112.017 509.257 111.125C511.181 110.234 513.339 109.788 515.732 109.788C518.242 109.788 520.377 110.304 522.137 111.336C523.897 112.369 525.246 113.835 526.184 115.735C527.122 117.612 527.592 119.841 527.592 122.422H510.348V118.304H522.383L519.99 119.641C519.873 118.726 519.638 117.964 519.286 117.354C518.935 116.744 518.465 116.286 517.879 115.982C517.316 115.653 516.635 115.489 515.838 115.489C514.946 115.489 514.184 115.688 513.55 116.087C512.94 116.486 512.471 117.037 512.143 117.741C511.838 118.421 511.685 119.196 511.685 120.064C511.685 121.19 511.932 122.14 512.424 122.914C512.94 123.665 513.715 124.24 514.747 124.639C515.779 125.037 517.081 125.237 518.653 125.237C520.178 125.237 521.656 125.049 523.087 124.674C524.542 124.275 525.879 123.712 527.099 122.985V128.052C525.597 129.108 523.885 129.917 521.961 130.48C520.061 131.02 518.137 131.29 516.19 131.29ZM529.109 110.421H538.259L539.455 117.565V130.656H530.517V117.46L529.109 110.421ZM548.394 109.999V117.565C547.596 117.424 546.881 117.331 546.247 117.284C545.614 117.213 545.051 117.178 544.558 117.178C543.666 117.178 542.834 117.342 542.059 117.671C541.285 117.976 540.652 118.539 540.159 119.36C539.69 120.181 539.455 121.354 539.455 122.879L537.872 120.908C538.106 119.454 538.399 118.07 538.751 116.756C539.127 115.418 539.619 114.234 540.229 113.201C540.839 112.146 541.614 111.313 542.552 110.703C543.49 110.093 544.663 109.788 546.071 109.788C546.423 109.788 546.787 109.811 547.162 109.858C547.537 109.882 547.948 109.929 548.394 109.999ZM575.461 123.759C575.461 125.448 574.933 126.856 573.877 127.982C572.822 129.084 571.344 129.917 569.443 130.48C567.566 131.02 565.361 131.29 562.827 131.29C560.223 131.29 557.924 130.985 555.93 130.375C553.959 129.741 552.399 128.862 551.249 127.735C550.123 126.609 549.525 125.295 549.455 123.794H558.534C558.698 124.24 558.98 124.615 559.379 124.92C559.777 125.202 560.294 125.424 560.927 125.589C561.584 125.729 562.382 125.8 563.32 125.8C564.446 125.8 565.303 125.694 565.889 125.483C566.476 125.249 566.769 124.932 566.769 124.533C566.769 124.134 566.522 123.853 566.03 123.688C565.537 123.524 564.739 123.407 563.637 123.336L560.329 123.125C557.772 122.961 555.73 122.633 554.206 122.14C552.704 121.624 551.625 120.932 550.968 120.064C550.311 119.196 549.983 118.152 549.983 116.932C549.983 115.313 550.487 113.976 551.496 112.92C552.528 111.864 553.959 111.078 555.789 110.562C557.619 110.046 559.754 109.788 562.194 109.788C564.587 109.788 566.71 110.093 568.564 110.703C570.417 111.289 571.907 112.122 573.033 113.201C574.159 114.281 574.816 115.536 575.004 116.967H565.924C565.807 116.545 565.572 116.181 565.22 115.876C564.868 115.571 564.411 115.336 563.848 115.172C563.285 115.008 562.605 114.926 561.807 114.926C560.728 114.926 559.942 115.055 559.449 115.313C558.956 115.547 558.71 115.864 558.71 116.263C558.71 116.638 558.863 116.908 559.168 117.072C559.472 117.213 560.071 117.307 560.962 117.354L565.396 117.635C567.93 117.776 569.924 118.105 571.379 118.621C572.857 119.114 573.901 119.782 574.511 120.627C575.144 121.471 575.461 122.515 575.461 123.759ZM379.091 167.759C379.091 169.448 378.563 170.856 377.507 171.982C376.452 173.084 374.974 173.917 373.073 174.48C371.197 175.02 368.991 175.29 366.457 175.29C363.853 175.29 361.554 174.985 359.56 174.375C357.589 173.741 356.029 172.862 354.88 171.735C353.753 170.609 353.155 169.295 353.085 167.794H362.164C362.328 168.24 362.61 168.615 363.009 168.92C363.408 169.202 363.924 169.424 364.557 169.589C365.214 169.729 366.012 169.8 366.95 169.8C368.076 169.8 368.933 169.694 369.519 169.483C370.106 169.249 370.399 168.932 370.399 168.533C370.399 168.134 370.153 167.853 369.66 167.688C369.167 167.524 368.369 167.407 367.267 167.336L363.959 167.125C361.402 166.961 359.361 166.633 357.836 166.14C356.334 165.624 355.255 164.932 354.598 164.064C353.941 163.196 353.613 162.152 353.613 160.932C353.613 159.313 354.117 157.976 355.126 156.92C356.158 155.864 357.589 155.078 359.419 154.562C361.249 154.046 363.384 153.788 365.824 153.788C368.217 153.788 370.34 154.093 372.194 154.703C374.047 155.289 375.537 156.122 376.663 157.201C377.789 158.281 378.446 159.536 378.634 160.967H369.554C369.437 160.545 369.202 160.181 368.85 159.876C368.499 159.571 368.041 159.336 367.478 159.172C366.915 159.008 366.235 158.926 365.437 158.926C364.358 158.926 363.572 159.055 363.079 159.313C362.586 159.547 362.34 159.864 362.34 160.263C362.34 160.638 362.493 160.908 362.798 161.072C363.103 161.213 363.701 161.307 364.592 161.354L369.026 161.635C371.56 161.776 373.554 162.105 375.009 162.621C376.487 163.114 377.531 163.782 378.141 164.627C378.774 165.471 379.091 166.515 379.091 167.759ZM394.051 175.29C391.541 175.29 389.289 174.844 387.295 173.952C385.324 173.037 383.764 171.771 382.614 170.152C381.464 168.51 380.89 166.609 380.89 164.451C380.89 162.316 381.441 160.451 382.544 158.855C383.67 157.26 385.195 156.017 387.119 155.125C389.042 154.234 391.201 153.788 393.594 153.788C396.104 153.788 398.239 154.304 399.999 155.336C401.758 156.369 403.107 157.835 404.046 159.735C404.984 161.612 405.453 163.841 405.453 166.422H388.209V162.304H400.245L397.852 163.641C397.735 162.726 397.5 161.964 397.148 161.354C396.796 160.744 396.327 160.286 395.74 159.982C395.177 159.653 394.497 159.489 393.699 159.489C392.808 159.489 392.045 159.688 391.412 160.087C390.802 160.486 390.333 161.037 390.004 161.741C389.699 162.421 389.547 163.196 389.547 164.064C389.547 165.19 389.793 166.14 390.286 166.914C390.802 167.665 391.576 168.24 392.608 168.639C393.641 169.037 394.943 169.237 396.515 169.237C398.04 169.237 399.518 169.049 400.949 168.674C402.403 168.275 403.741 167.712 404.961 166.985V172.052C403.459 173.108 401.746 173.917 399.823 174.48C397.922 175.02 395.998 175.29 394.051 175.29ZM408.093 147.559H417.031V174.656H408.093V147.559ZM432.748 175.29C430.238 175.29 427.985 174.844 425.991 173.952C424.02 173.037 422.46 171.771 421.311 170.152C420.161 168.51 419.586 166.609 419.586 164.451C419.586 162.316 420.138 160.451 421.24 158.855C422.366 157.26 423.891 156.017 425.815 155.125C427.739 154.234 429.897 153.788 432.29 153.788C434.801 153.788 436.936 154.304 438.695 155.336C440.455 156.369 441.804 157.835 442.742 159.735C443.681 161.612 444.15 163.841 444.15 166.422H426.906V162.304H438.942L436.549 163.641C436.431 162.726 436.197 161.964 435.845 161.354C435.493 160.744 435.024 160.286 434.437 159.982C433.874 159.653 433.194 159.489 432.396 159.489C431.504 159.489 430.742 159.688 430.109 160.087C429.499 160.486 429.029 161.037 428.701 161.741C428.396 162.421 428.243 163.196 428.243 164.064C428.243 165.19 428.49 166.14 428.982 166.914C429.499 167.665 430.273 168.24 431.305 168.639C432.337 169.037 433.639 169.237 435.211 169.237C436.736 169.237 438.214 169.049 439.645 168.674C441.1 168.275 442.437 167.712 443.657 166.985V172.052C442.156 173.108 440.443 173.917 438.519 174.48C436.619 175.02 434.695 175.29 432.748 175.29ZM472.057 165.753C471.892 167.653 471.224 169.319 470.051 170.75C468.878 172.181 467.341 173.296 465.441 174.093C463.564 174.891 461.44 175.29 459.071 175.29C456.49 175.29 454.215 174.844 452.244 173.952C450.273 173.037 448.736 171.771 447.634 170.152C446.531 168.533 445.98 166.668 445.98 164.556C445.98 162.421 446.531 160.556 447.634 158.961C448.736 157.342 450.273 156.075 452.244 155.16C454.215 154.245 456.49 153.788 459.071 153.788C461.44 153.788 463.564 154.187 465.441 154.984C467.341 155.782 468.878 156.896 470.051 158.328C471.224 159.735 471.892 161.401 472.057 163.325H463.223C463.012 162.316 462.531 161.565 461.781 161.072C461.053 160.556 460.15 160.298 459.071 160.298C458.25 160.298 457.523 160.462 456.889 160.791C456.279 161.096 455.81 161.565 455.481 162.199C455.153 162.832 454.989 163.618 454.989 164.556C454.989 165.495 455.153 166.281 455.481 166.914C455.81 167.524 456.279 167.993 456.889 168.322C457.523 168.627 458.25 168.779 459.071 168.779C460.15 168.779 461.053 168.51 461.781 167.97C462.531 167.407 463.012 166.668 463.223 165.753H472.057ZM472.701 160.932V157.096L476.678 155.09L480.584 148.896H485.616V154.421H493.534V160.932H485.616V165.084C485.616 166.375 485.863 167.29 486.355 167.829C486.848 168.345 487.857 168.603 489.382 168.603C490.32 168.603 491.153 168.545 491.88 168.427C492.631 168.287 493.3 168.122 493.886 167.935V174.41C493.089 174.645 492.103 174.844 490.93 175.008C489.781 175.196 488.572 175.29 487.306 175.29C484.913 175.29 482.93 174.938 481.358 174.234C479.786 173.507 478.613 172.463 477.839 171.102C477.065 169.741 476.678 168.122 476.678 166.246V160.932H472.701ZM508.285 175.29C505.775 175.29 503.523 174.844 501.529 173.952C499.558 173.037 497.998 171.771 496.848 170.152C495.699 168.51 495.124 166.609 495.124 164.451C495.124 162.316 495.675 160.451 496.778 158.855C497.904 157.26 499.429 156.017 501.353 155.125C503.276 154.234 505.435 153.788 507.828 153.788C510.338 153.788 512.473 154.304 514.233 155.336C515.992 156.369 517.341 157.835 518.28 159.735C519.218 161.612 519.687 163.841 519.687 166.422H502.444V162.304H514.479L512.086 163.641C511.969 162.726 511.734 161.964 511.382 161.354C511.03 160.744 510.561 160.286 509.975 159.982C509.411 159.653 508.731 159.489 507.933 159.489C507.042 159.489 506.279 159.688 505.646 160.087C505.036 160.486 504.567 161.037 504.238 161.741C503.933 162.421 503.781 163.196 503.781 164.064C503.781 165.19 504.027 166.14 504.52 166.914C505.036 167.665 505.81 168.24 506.843 168.639C507.875 169.037 509.177 169.237 510.749 169.237C512.274 169.237 513.752 169.049 515.183 168.674C516.637 168.275 517.975 167.712 519.195 166.985V172.052C517.693 173.108 515.981 173.917 514.057 174.48C512.156 175.02 510.233 175.29 508.285 175.29ZM540.345 174.656L539.324 167.125L540.697 164.627L539.324 161.248L541.154 147.559H550.444L548.192 163.817L549.635 174.656H540.345ZM542.034 164.556C541.799 166.715 541.213 168.603 540.274 170.222C539.359 171.817 538.151 173.061 536.65 173.952C535.171 174.844 533.471 175.29 531.547 175.29C529.576 175.29 527.84 174.844 526.338 173.952C524.86 173.061 523.699 171.806 522.855 170.187C522.033 168.568 521.623 166.691 521.623 164.556C521.623 162.398 522.033 160.509 522.855 158.891C523.699 157.272 524.86 156.017 526.338 155.125C527.84 154.234 529.576 153.788 531.547 153.788C533.471 153.788 535.171 154.234 536.65 155.125C538.151 155.993 539.371 157.237 540.309 158.855C541.248 160.451 541.823 162.351 542.034 164.556ZM530.632 164.556C530.632 165.331 530.784 166.023 531.089 166.633C531.418 167.219 531.863 167.688 532.427 168.04C533.013 168.392 533.682 168.568 534.432 168.568C535.207 168.568 535.957 168.392 536.685 168.04C537.412 167.688 538.045 167.219 538.585 166.633C539.148 166.023 539.535 165.331 539.746 164.556C539.535 163.782 539.148 163.09 538.585 162.48C538.045 161.87 537.412 161.389 536.685 161.037C535.957 160.685 535.207 160.509 534.432 160.509C533.682 160.509 533.013 160.685 532.427 161.037C531.863 161.389 531.418 161.87 531.089 162.48C530.784 163.09 530.632 163.782 530.632 164.556Z" fill="#004921"/>
<path d="M188.601 135.424C186.195 147.251 156.747 148.524 145.297 147.456L146.774 174.711C165.021 172.897 188.318 160.003 192.094 151.819C210.514 153.536 209.139 141.356 208.515 137.28C213.13 138.045 220.108 140.047 221.748 135.379C223.778 129.603 211.952 129.917 199.505 130.247L199.126 130.257C198.919 121.701 192.31 117.189 188.601 135.424Z" fill="#004921"/>
<path d="M146.774 123.879C154.291 143.879 186.196 147.251 188.601 135.424C192.31 117.189 198.919 121.701 199.126 130.257C211.711 129.924 223.799 129.545 221.748 135.379C220.108 140.047 213.13 138.045 208.515 137.28C209.139 141.356 210.514 153.536 192.094 151.819C188.318 160.003 160.291 171.379 140.791 151.819" stroke="white" stroke-width="2"/>
<path d="M196 112.771C220.5 100.5 227 114.271 228 118.771" stroke="white" stroke-width="2"/>
</svg>
