<svg width="36" height="36" viewBox="0 0 36 36" fill="none" xmlns="http://www.w3.org/2000/svg">
<path d="M33 11.9999C33.0146 11.8955 33.0146 11.7894 33 11.6849V11.5649C32.9742 11.4812 32.939 11.4007 32.895 11.3249C32.8755 11.2817 32.8503 11.2414 32.82 11.2049L32.67 11.0099L32.55 10.9199L32.37 10.7849L18.87 3.28495C18.642 3.15329 18.3833 3.08398 18.12 3.08398C17.8567 3.08398 17.598 3.15329 17.37 3.28495L3.87 10.7849L3.735 10.8899L3.57 11.0099C3.52642 11.059 3.49097 11.1147 3.465 11.1749C3.41701 11.218 3.37646 11.2687 3.345 11.3249C3.30605 11.3908 3.2758 11.4614 3.255 11.5349C3.24661 11.5846 3.24661 11.6353 3.255 11.6849C3.15187 11.7739 3.0655 11.8806 3 11.9999V23.9999C3.00195 24.2672 3.07528 24.5291 3.21242 24.7586C3.34955 24.988 3.54551 25.1767 3.78 25.3049L17.28 32.8049C17.342 32.8411 17.4073 32.8712 17.475 32.8949H17.625C17.8714 32.9548 18.1286 32.9548 18.375 32.8949H18.525L18.735 32.8049L32.235 25.3049C32.4667 25.1747 32.6596 24.9852 32.794 24.7559C32.9285 24.5266 32.9995 24.2657 33 23.9999V11.9999ZM18 17.8049L7.59 11.9999L11.73 9.71995L21.975 15.5699L18 17.8049ZM18 6.22495L28.41 11.9999L25.05 13.8749L14.805 8.00995L18 6.22495ZM6 14.5499L16.5 20.4299V28.9499L6 23.1149V14.5499ZM19.5 28.9499V20.4299L24 17.9099V22.4999L27 20.9999V16.2299L30 14.5649V23.1149L19.5 28.9499Z" fill="#437057"/>
</svg>
